<?xml version="1.0" encoding="UTF-8"?>
<svg version="1.1" xmlns="http://www.w3.org/2000/svg" width="500" height="500">
<path d="M0 0 C165 0 330 0 500 0 C500 165 500 330 500 500 C335 500 170 500 0 500 C0 335 0 170 0 0 Z " fill="#FEFEFE" transform="translate(0,0)"/>
<path d="M0 0 C4.14925924 1.38308641 4.97972737 3.16844846 7 7 C7.6345659 11.39051004 7.0715109 15.71395642 6 20 C10.27179168 23.7407048 10.27179168 23.7407048 15.5625 25.0625 C18.6493684 23.71694198 21.27318404 21.96584407 24 20 C23.84273438 19.42894531 23.68546875 18.85789063 23.5234375 18.26953125 C22.47427077 13.72053222 21.9003842 9.10695615 24.1171875 4.859375 C25.32812648 3.17637506 26.65621045 1.57895272 28 0 C31 1 31 1 32.6875 3.125 C34.3537992 6.77498873 34.48100757 9.01450866 34 13 C31.29099812 19.47804798 26.60058224 23.83740509 21 28 C20.34 28 19.68 28 19 28 C19.70125 28.680625 20.4025 29.36125 21.125 30.0625 C22.08551425 31.03952739 23.04362901 32.01891658 24 33 C24.82564453 33.81404297 24.82564453 33.81404297 25.66796875 34.64453125 C28.54493477 37.67183754 29.88741764 39.35828054 30.625 43.5625 C29.31445766 50.77048286 24.47798924 54.66069391 19 59 C19.3609375 59.46148437 19.721875 59.92296875 20.09375 60.3984375 C23.49514034 65.17928059 24.73814332 68.83477896 24.4296875 74.72265625 C23.80531774 78.03181599 22.53472505 79.82737853 20 82 C19.01 82 18.02 82 17 82 C17 83.65 17 85.3 17 87 C15.68 87 14.36 87 13 87 C12.938125 86.4225 12.87625 85.845 12.8125 85.25 C11.6812921 82.11742429 9.62052199 80.96539149 7 79 C5.1617463 75.32349261 5.62115812 71.02203801 6 67 C7.5 63.875 7.5 63.875 9 62 C9.99 62.66 10.98 63.32 12 64 C11.67 64.99 11.34 65.98 11 67 C10.93197033 68.72795352 10.91504355 70.45835365 10.9375 72.1875 C10.94652344 73.08855469 10.95554688 73.98960937 10.96484375 74.91796875 C10.97644531 75.60503906 10.98804688 76.29210937 11 77 C11.66 77.33 12.32 77.66 13 78 C13 74.04 13 70.08 13 66 C14.32 66.66 15.64 67.32 17 68 C17 71.3 17 74.6 17 78 C17.99 77.505 17.99 77.505 19 77 C19.35436603 72.5704246 19.46876163 69.04406 17.625 64.9375 C14.52479194 61.46821955 11.07878911 58.79261544 7.41796875 55.9375 C2.99505801 52.39345521 0.37147107 49.9192672 -0.75 44.125 C-0.47230629 39.48482764 2.13726712 36.78117631 5.17578125 33.46875 C7 32 7 32 10 32 C10 32.99 10 33.98 10 35 C9.175 35.7425 8.35 36.485 7.5 37.25 C4.71028853 39.82868592 4.71028853 39.82868592 4.375 43.5 C5.15190025 47.85064139 6.65602829 49.2133569 10 52 C10.66 52.66 11.32 53.32 12 54 C12.33 47.73 12.66 41.46 13 35 C14.32 35.66 15.64 36.32 17 37 C17.495 45.415 17.495 45.415 18 54 C23.13860824 49.72494859 23.13860824 49.72494859 25.6875 43.875 C24.09135658 37.20021843 18.59178692 34.13226179 13.1875 30.625 C-2.3778342 20.20962578 -2.3778342 20.20962578 -4 13 C-4.62373454 7.28243338 -3.51909347 4.50883851 0 0 Z " fill="#85DB61" transform="translate(235,221)"/>
<path d="M0 0 C1.1875 1.890625 1.1875 1.890625 2 4.25 C3.31664451 7.66032512 4.07632084 9.07632084 6.75 11.75 C9 14 9 14 9.3125 16.8125 C9.209375 17.534375 9.10625 18.25625 9 19 C4.71635739 18.52403971 2.73976076 16.16126242 0 13 C-2.2457269 9.20549593 -3 7.46379252 -3 3 C-3.82242188 3.39832031 -4.64484375 3.79664063 -5.4921875 4.20703125 C-17.86671414 10.07993015 -29.58015883 12.80487517 -43 15 C-42.34 15.99 -41.68 16.98 -41 18 C-27.2694614 16.95030917 -27.2694614 16.95030917 -13.95703125 13.6640625 C-11.34988656 12.77940263 -8.72384948 12.35840125 -6 12 C-6 13.32 -6 14.64 -6 16 C-14.18589648 19.73158885 -22.17714312 22.24965904 -31 24 C-24.74307329 27.12846336 -14.74911444 24.89988192 -8 24 C-8.33 25.32 -8.66 26.64 -9 28 C-11.64 28.66 -14.28 29.32 -17 30 C-15.11545698 34.3520017 -15.11545698 34.3520017 -11.8125 37.625 C-11.214375 38.07875 -10.61625 38.5325 -10 39 C-10 40.32 -10 41.64 -10 43 C-13.42578919 42.70636093 -14.99181587 42.0063241 -17.75 39.875 C-20.39147413 36.49978306 -20.75148178 34.22480975 -21 30 C-22.01707031 30.10441406 -22.01707031 30.10441406 -23.0546875 30.2109375 C-30.96614989 30.67116107 -35.86545078 29.00216855 -42 24 C-51.22918645 15.14666277 -51.22918645 15.14666277 -52 10 C-50.87464844 9.89042969 -49.74929687 9.78085938 -48.58984375 9.66796875 C-34.32212654 8.22305745 -21.02752592 6.47501269 -8.0234375 0.109375 C-4.71784845 -1.10352848 -3.23918523 -1.36386746 0 0 Z " fill="#434041" transform="translate(235,195)"/>
<path d="M0 0 C4.19601947 0.25689915 6.62297106 0.7975215 10.375 2.8125 C22.48634515 9.20524456 37.61057477 9.88298977 51 11 C48.47769154 18.420897 42.63984684 25.02909567 35.625 28.5625 C31.5653755 30.17235109 28.64303835 31.12526143 24.3125 31.0625 C23.10013672 31.04896484 23.10013672 31.04896484 21.86328125 31.03515625 C21.24839844 31.02355469 20.63351562 31.01195312 20 31 C19.9175 32.051875 19.835 33.10375 19.75 34.1875 C18.92659268 38.37315387 18.12184899 40.1312739 15 43 C11.75 43.8125 11.75 43.8125 9 44 C9.41964928 39.10409172 11.57839199 37.33606781 15 34 C15.86119134 31.82653432 15.86119134 31.82653432 16 30 C14.6078125 30.061875 14.6078125 30.061875 13.1875 30.125 C10 30 10 30 7 28 C7 27.01 7 26.02 7 25 C8.299375 25.165 9.59875 25.33 10.9375 25.5 C17.02723954 26.17236872 23.05011756 26.68468581 29 25 C28.03320312 24.76925781 27.06640625 24.53851563 26.0703125 24.30078125 C18.184045 22.34924702 11.1021759 20.07748452 4 16 C4.33 15.01 4.66 14.02 5 13 C9.05190909 13.7339307 12.92469769 14.84464277 16.875 16 C24.5749902 18.16390457 32.01696545 18.77353093 40 19 C40.66 18.01 41.32 17.02 42 16 C41.32533691 15.86948242 40.65067383 15.73896484 39.95556641 15.60449219 C36.84331031 14.99641751 33.73423997 14.37330602 30.625 13.75 C29.56410156 13.54503906 28.50320313 13.34007812 27.41015625 13.12890625 C18.33234584 11.29106733 10.18227106 8.30645845 2 4 C1.79375 5.175625 1.5875 6.35125 1.375 7.5625 C0.18831196 12.32620486 -2.21092594 15.87265419 -6 19 C-8.1953125 19.69140625 -8.1953125 19.69140625 -10 20 C-10.3125 17.8125 -10.3125 17.8125 -10 15 C-8.33333333 13.33333333 -6.66666667 11.66666667 -5 10 C-3.78851581 7.6726751 -2.77930439 5.32254037 -1.796875 2.890625 C-1 1 -1 1 0 0 Z " fill="#434041" transform="translate(266,194)"/>
<path d="M0 0 C2.7912125 1.98322993 3.82597224 3.12986121 4.5 6.5 C4 9 4 9 2.00683594 10.61230469 C-0.88281271 14.05035381 -0.6028652 17.40846809 -0.609375 21.703125 C-0.62591125 22.54091492 -0.64244751 23.37870483 -0.65948486 24.24188232 C-0.70797499 26.91132937 -0.72933745 29.58020674 -0.75 32.25 C-0.77815893 34.06252868 -0.80808625 35.8750308 -0.83984375 37.6875 C-0.91373394 42.12495309 -0.96330214 46.56208977 -1 51 C-2.32 51 -3.64 51 -5 51 C-5.0093457 49.86981445 -5.01869141 48.73962891 -5.02832031 47.57519531 C-5.06822392 43.37785579 -5.13398326 39.18124896 -5.20751953 34.984375 C-5.2357271 33.16871561 -5.25694274 31.35293348 -5.27099609 29.53710938 C-5.29242909 26.92514211 -5.33907885 24.31465026 -5.390625 21.703125 C-5.39185364 20.89256653 -5.39308228 20.08200806 -5.39434814 19.24688721 C-5.49002284 15.55701036 -5.55231297 13.50806376 -8.04199219 10.68261719 C-8.68813477 10.12735352 -9.33427734 9.57208984 -10 9 C-9.9375 5.375 -9.9375 5.375 -9 2 C-5.50875983 -0.32749345 -4.10777749 -0.50299316 0 0 Z " fill="#434041" transform="translate(253,192)"/>
<path d="M0 0 C1.67542976 0.28604898 3.34385343 0.61781233 5 1 C5 2.65 5 4.3 5 6 C3.34385343 6.38218767 1.67542976 6.71395102 0 7 C-1 6 -1 6 -1.125 3.5 C-1 1 -1 1 0 0 Z " fill="#EFEFEF" transform="translate(248,195)"/>
<path d="M0 0 C2 2 2 2 2.1953125 3.9453125 C2.13020833 5.96354167 2.06510417 7.98177083 2 10 C0.5 8.875 0.5 8.875 -1 7 C-1.25 3.875 -1.25 3.875 -1 1 C-0.67 0.67 -0.34 0.34 0 0 Z " fill="#F4FBF1" transform="translate(236,227)"/>
<path d="M0 0 C0.66 0.33 1.32 0.66 2 1 C2.125 6.75 2.125 6.75 1 9 C0.34 9 -0.32 9 -1 9 C-1.125 2.25 -1.125 2.25 0 0 Z " fill="#F5FCF2" transform="translate(263,227)"/>
</svg>
