<svg xmlns="http://www.w3.org/2000/svg" xmlns:xlink="http://www.w3.org/1999/xlink" width="500" zoomAndPan="magnify" viewBox="0 0 375 374.999991" height="500" preserveAspectRatio="xMidYMid meet" version="1.0"><defs><g/><clipPath id="0c75f8af09"><path d="M 81 136.300781 L 94 136.300781 L 94 182 L 81 182 Z M 81 136.300781 " clip-rule="nonzero"/></clipPath><clipPath id="91e278eadc"><path d="M 93 138 L 146.710938 138 L 146.710938 178 L 93 178 Z M 93 138 " clip-rule="nonzero"/></clipPath></defs><rect x="-37.5" width="450" fill="#ffffff" y="-37.499999" height="449.999989" fill-opacity="1"/><rect x="-37.5" width="450" fill="#ffffff" y="-37.499999" height="449.999989" fill-opacity="1"/><path fill="#7ed957" d="M 76.886719 176.414062 C 75.914062 175.125 75.203125 173.765625 74.921875 172.363281 C 74.527344 170.425781 75.011719 168.605469 75.914062 166.960938 C 78.125 169.679688 78.441406 173.410156 76.886719 176.414062 Z M 100.109375 167.027344 C 100.992188 168.65625 101.453125 170.453125 101.066406 172.363281 C 100.792969 173.734375 100.101562 175.066406 99.144531 176.34375 C 97.648438 173.375 97.964844 169.71875 100.105469 167.027344 Z M 83.183594 226.46875 C 82.792969 223.382812 83.90625 220.882812 85.722656 218.640625 L 83.242188 216.421875 C 80.152344 220.191406 78.625 224.558594 80.671875 230.109375 C 81.503906 232.367188 83.765625 234.027344 86.324219 234.582031 L 86.324219 237.03125 C 86.324219 237.949219 87.074219 238.699219 87.992188 238.699219 C 88.90625 238.699219 89.660156 237.949219 89.660156 237.03125 L 89.660156 234.601562 C 91.578125 234.199219 93.265625 233.109375 94.417969 231.566406 C 94.816406 231.039062 95.152344 230.453125 95.410156 229.824219 L 95.410156 229.820312 C 97.625 223.472656 95.1875 218.507812 90.523438 214.046875 L 92.03125 212.832031 L 95.210938 210.269531 C 97.785156 208.105469 100.5625 205.457031 101.21875 202.152344 C 102.03125 198.097656 99.339844 194.523438 96.558594 191.90625 L 92.699219 188.765625 L 90.992188 187.5625 C 96.113281 184.140625 103.074219 179.308594 104.335938 173.03125 C 105.210938 168.691406 103.179688 164.863281 100.367188 161.753906 C 95.726562 166.394531 92.472656 172.199219 96.816406 178.929688 C 94.082031 181.539062 90.597656 183.8125 87.984375 185.546875 L 86.65625 184.664062 L 86.191406 184.351562 C 83.949219 182.839844 81.355469 181.023438 79.203125 178.988281 C 83.703125 172.097656 80.214844 166.433594 75.570312 161.789062 C 72.773438 164.894531 70.761719 168.710938 71.632812 173.035156 C 72.871094 179.175781 79.519531 183.929688 84.953125 187.546875 L 84.980469 187.566406 L 87.984375 189.566406 L 89.882812 190.863281 C 92.714844 192.855469 98.773438 197.324219 97.941406 201.503906 C 97.578125 203.328125 96.03125 205 94.726562 206.238281 C 93.113281 207.757812 91.382812 209.085938 89.652344 210.460938 L 89.652344 194.648438 L 88.902344 194.152344 L 86.804688 192.753906 L 86.3125 192.429688 L 86.3125 210.464844 C 84.585938 209.09375 82.824219 207.738281 81.238281 206.242188 C 79.933594 205.007812 78.390625 203.332031 78.023438 201.507812 C 77.285156 197.78125 82.019531 193.824219 85.0625 191.597656 L 83.042969 190.253906 L 82.117188 189.636719 C 78.15625 192.679688 73.738281 197.09375 74.75 202.164062 C 75.628906 206.5625 80.503906 210.117188 83.917969 212.828125 C 87.746094 216.050781 92.722656 219.542969 92.863281 225.050781 C 92.890625 226.265625 92.679688 227.566406 92.164062 228.96875 L 92.164062 228.972656 C 91.625 229.996094 90.730469 230.78125 89.652344 231.179688 L 89.652344 222.179688 L 87.167969 219.957031 L 86.320312 219.195312 L 86.320312 231.15625 C 85.089844 230.679688 84.097656 229.691406 83.625 228.429688 L 83.625 228.425781 C 83.429688 227.804688 83.269531 227.167969 83.183594 226.484375 Z M 83.183594 226.46875 " fill-opacity="1" fill-rule="evenodd"/><g clip-path="url(#0c75f8af09)"><path fill="#373435" d="M 91.097656 142.300781 C 91.097656 144.011719 89.707031 145.402344 87.996094 145.402344 C 86.285156 145.402344 84.898438 144.011719 84.898438 142.300781 C 84.898438 140.585938 86.285156 139.199219 87.996094 139.199219 C 89.707031 139.199219 91.097656 140.589844 91.097656 142.300781 Z M 89.664062 180.828125 L 89.664062 148.070312 C 92.167969 147.34375 94 145.328125 94 142.304688 C 94 139.28125 91.308594 136.300781 87.996094 136.300781 C 84.683594 136.300781 81.996094 139.28125 81.996094 142.304688 C 81.996094 145.328125 83.828125 147.347656 86.328125 148.070312 L 86.328125 180.824219 C 86.839844 181.179688 87.355469 181.53125 87.863281 181.871094 L 88 181.964844 C 88.554688 181.59375 89.113281 181.21875 89.664062 180.832031 Z M 89.664062 180.828125 " fill-opacity="1" fill-rule="evenodd"/></g><path fill="#373435" d="M 65.539062 173.1875 C 62.378906 172.550781 60.433594 169.980469 59.695312 165.480469 C 61.902344 165.101562 64.183594 164.484375 66.539062 163.636719 C 69.457031 162.589844 68.492188 159.589844 64.804688 160.585938 C 57.054688 162.683594 50.484375 162.414062 45.089844 159.777344 C 54.878906 158.925781 62.90625 156.734375 69.183594 153.195312 C 70.042969 152.6875 70.339844 151.585938 69.851562 150.714844 C 69.359375 149.84375 68.261719 149.523438 67.378906 150 C 60.859375 153.542969 51.628906 155.535156 39.6875 155.976562 C 38.335938 154.679688 37.089844 153.171875 35.949219 151.457031 C 48.03125 151.113281 59.214844 148.363281 69.515625 143.199219 C 71.785156 142.0625 72.019531 141.496094 72.609375 144.183594 C 74.015625 150.609375 77.480469 154.730469 82.992188 156.539062 L 82.992188 152.363281 C 79.988281 150.890625 77.804688 148.199219 76.953125 145.03125 C 75.589844 139.96875 74.347656 136.417969 68.089844 139.914062 C 59.753906 144.578125 46.746094 147.527344 29.0625 148.777344 C 36.027344 160.78125 45.007812 166.488281 56.003906 165.90625 C 56.792969 173.070312 60.363281 176.882812 66.710938 177.347656 C 66.128906 176.003906 65.699219 174.613281 65.480469 173.179688 L 65.539062 173.191406 Z M 65.886719 173.246094 C 65.832031 173.238281 65.777344 173.230469 65.726562 173.21875 C 65.777344 173.230469 65.828125 173.234375 65.886719 173.246094 Z M 66.421875 173.308594 C 66.367188 173.304688 66.3125 173.296875 66.257812 173.292969 C 66.3125 173.296875 66.367188 173.300781 66.421875 173.308594 Z M 66.421875 173.308594 " fill-opacity="1" fill-rule="evenodd"/><g clip-path="url(#91e278eadc)"><path fill="#373435" d="M 110.433594 173.1875 C 110.214844 174.621094 109.785156 176.015625 109.195312 177.351562 C 115.597656 176.914062 119.195312 173.097656 119.988281 165.902344 C 130.984375 166.488281 139.964844 160.777344 146.933594 148.773438 C 129.25 147.527344 116.242188 144.574219 107.90625 139.910156 C 101.644531 136.414062 100.40625 139.964844 99.039062 145.027344 C 98.1875 148.195312 96.007812 150.886719 93.003906 152.359375 L 93.003906 156.535156 C 98.515625 154.726562 101.972656 150.605469 103.386719 144.179688 C 103.976562 141.492188 104.210938 142.058594 106.480469 143.195312 C 116.777344 148.359375 127.964844 151.109375 140.042969 151.453125 C 138.902344 153.171875 137.652344 154.675781 136.300781 155.972656 C 124.363281 155.53125 115.128906 153.539062 108.609375 149.996094 C 107.730469 149.523438 106.632812 149.839844 106.140625 150.710938 C 105.648438 151.582031 105.945312 152.683594 106.808594 153.195312 C 113.082031 156.730469 121.117188 158.921875 130.902344 159.773438 C 125.507812 162.414062 118.9375 162.683594 111.1875 160.585938 C 107.496094 159.585938 106.535156 162.589844 109.453125 163.636719 C 111.808594 164.484375 114.089844 165.097656 116.296875 165.476562 C 115.558594 169.984375 113.605469 172.554688 110.433594 173.183594 Z M 109.765625 173.292969 C 109.808594 173.289062 109.851562 173.28125 109.898438 173.277344 C 109.851562 173.28125 109.808594 173.289062 109.765625 173.292969 Z M 109.203125 173.335938 C 109.261719 173.332031 109.320312 173.328125 109.382812 173.324219 C 109.320312 173.328125 109.261719 173.332031 109.203125 173.335938 Z M 109.203125 173.335938 " fill-opacity="1" fill-rule="evenodd"/></g><g fill="#000000" fill-opacity="1"><g transform="translate(147.035546, 197.135213)"><g><path d="M 15.078125 -13.625 C 14.546875 -15.957031 13.046875 -17.125 10.578125 -17.125 C 9.046875 -17.125 7.820312 -16.5 6.90625 -15.25 C 6 -14 5.546875 -12.265625 5.546875 -10.046875 C 5.546875 -7.960938 5.988281 -6.285156 6.875 -5.015625 C 7.757812 -3.753906 8.992188 -3.125 10.578125 -3.125 C 13.003906 -3.125 14.503906 -4.394531 15.078125 -6.9375 L 19.296875 -6.9375 C 18.992188 -4.863281 18.082031 -3.097656 16.5625 -1.640625 C 15.050781 -0.191406 13.03125 0.53125 10.5 0.53125 C 7.664062 0.53125 5.410156 -0.398438 3.734375 -2.265625 C 2.066406 -4.140625 1.234375 -6.75 1.234375 -10.09375 C 1.234375 -13.300781 2.066406 -15.882812 3.734375 -17.84375 C 5.398438 -19.8125 7.671875 -20.796875 10.546875 -20.796875 C 13.078125 -20.796875 15.117188 -20.113281 16.671875 -18.75 C 18.234375 -17.382812 19.109375 -15.675781 19.296875 -13.625 Z M 15.078125 -13.625 "/></g></g></g><g fill="#000000" fill-opacity="1"><g transform="translate(167.444572, 197.135213)"><g><path d="M 7.34375 -7.671875 L 12.515625 -7.671875 L 9.984375 -15.6875 L 9.9375 -15.6875 Z M 4.8125 0 L 0.34375 0 L 7.5625 -20.25 L 12.453125 -20.25 L 19.59375 0 L 14.984375 0 L 13.703125 -4.171875 L 6.21875 -4.171875 Z M 4.8125 0 "/></g></g></g><g fill="#000000" fill-opacity="1"><g transform="translate(187.385059, 197.135213)"><g><path d="M 11.171875 -11.34375 C 12.285156 -11.34375 13.109375 -11.550781 13.640625 -11.96875 C 14.179688 -12.394531 14.453125 -13.109375 14.453125 -14.109375 C 14.453125 -14.929688 14.203125 -15.578125 13.703125 -16.046875 C 13.203125 -16.523438 12.460938 -16.765625 11.484375 -16.765625 L 6.21875 -16.765625 L 6.21875 -11.34375 Z M 2.0625 -20.25 L 12.296875 -20.25 C 14.390625 -20.25 15.976562 -19.691406 17.0625 -18.578125 C 18.144531 -17.460938 18.6875 -16.113281 18.6875 -14.53125 C 18.6875 -12.1875 17.644531 -10.582031 15.5625 -9.71875 C 16.519531 -9.34375 17.1875 -8.804688 17.5625 -8.109375 C 17.9375 -7.421875 18.125 -6.175781 18.125 -4.375 C 18.125 -2.570312 18.1875 -1.507812 18.3125 -1.1875 C 18.445312 -0.875 18.679688 -0.65625 19.015625 -0.53125 L 19.015625 0 L 14.34375 0 C 14.039062 -0.90625 13.890625 -2.21875 13.890625 -3.9375 C 13.890625 -5.382812 13.789062 -6.316406 13.59375 -6.734375 C 13.40625 -7.148438 13.085938 -7.453125 12.640625 -7.640625 C 12.191406 -7.828125 11.503906 -7.921875 10.578125 -7.921875 L 6.21875 -7.921875 L 6.21875 0 L 2.0625 0 Z M 2.0625 -20.25 "/></g></g></g><g fill="#000000" fill-opacity="1"><g transform="translate(207.43579, 197.135213)"><g><path d="M 16.96875 -16.671875 L 6.21875 -16.671875 L 6.21875 -12.421875 L 16.09375 -12.421875 L 16.09375 -8.828125 L 6.21875 -8.828125 L 6.21875 -3.578125 L 17.4375 -3.578125 L 17.4375 0 L 2.0625 0 L 2.0625 -20.25 L 16.96875 -20.25 Z M 16.96875 -16.671875 "/></g></g></g><g fill="#000000" fill-opacity="1"><g transform="translate(226.122235, 197.135213)"><g><path d="M 15.078125 -13.625 C 14.546875 -15.957031 13.046875 -17.125 10.578125 -17.125 C 9.046875 -17.125 7.820312 -16.5 6.90625 -15.25 C 6 -14 5.546875 -12.265625 5.546875 -10.046875 C 5.546875 -7.960938 5.988281 -6.285156 6.875 -5.015625 C 7.757812 -3.753906 8.992188 -3.125 10.578125 -3.125 C 13.003906 -3.125 14.503906 -4.394531 15.078125 -6.9375 L 19.296875 -6.9375 C 18.992188 -4.863281 18.082031 -3.097656 16.5625 -1.640625 C 15.050781 -0.191406 13.03125 0.53125 10.5 0.53125 C 7.664062 0.53125 5.410156 -0.398438 3.734375 -2.265625 C 2.066406 -4.140625 1.234375 -6.75 1.234375 -10.09375 C 1.234375 -13.300781 2.066406 -15.882812 3.734375 -17.84375 C 5.398438 -19.8125 7.671875 -20.796875 10.546875 -20.796875 C 13.078125 -20.796875 15.117188 -20.113281 16.671875 -18.75 C 18.234375 -17.382812 19.109375 -15.675781 19.296875 -13.625 Z M 15.078125 -13.625 "/></g></g></g><g fill="#000000" fill-opacity="1"><g transform="translate(246.531261, 197.135213)"><g><path d="M 7.34375 -7.671875 L 12.515625 -7.671875 L 9.984375 -15.6875 L 9.9375 -15.6875 Z M 4.8125 0 L 0.34375 0 L 7.5625 -20.25 L 12.453125 -20.25 L 19.59375 0 L 14.984375 0 L 13.703125 -4.171875 L 6.21875 -4.171875 Z M 4.8125 0 "/></g></g></g><g fill="#000000" fill-opacity="1"><g transform="translate(266.471748, 197.135213)"><g><path d="M 14.640625 -20.25 L 18.578125 -20.25 L 18.578125 0 L 14.34375 0 L 6.078125 -14.453125 L 6.015625 -14.453125 L 6.015625 0 L 2.0625 0 L 2.0625 -20.25 L 6.53125 -20.25 L 14.578125 -6.140625 L 14.640625 -6.140625 Z M 14.640625 -20.25 "/></g></g></g><g fill="#000000" fill-opacity="1"><g transform="translate(287.115034, 197.135213)"><g><path d="M 13.71875 -20.25 L 18.125 -20.25 L 11.234375 0 L 7.203125 0 L 0.375 -20.25 L 4.921875 -20.25 L 9.265625 -4.90625 L 9.3125 -4.90625 Z M 13.71875 -20.25 "/></g></g></g><g fill="#000000" fill-opacity="1"><g transform="translate(305.58099, 197.135213)"><g><path d="M 7.34375 -7.671875 L 12.515625 -7.671875 L 9.984375 -15.6875 L 9.9375 -15.6875 Z M 4.8125 0 L 0.34375 0 L 7.5625 -20.25 L 12.453125 -20.25 L 19.59375 0 L 14.984375 0 L 13.703125 -4.171875 L 6.21875 -4.171875 Z M 4.8125 0 "/></g></g></g><g fill="#000000" fill-opacity="1"><g transform="translate(325.521477, 197.135213)"><g><path d="M 5.234375 -6.234375 C 5.234375 -5.234375 5.601562 -4.4375 6.34375 -3.84375 C 7.082031 -3.257812 8.140625 -2.96875 9.515625 -2.96875 C 10.898438 -2.96875 11.953125 -3.1875 12.671875 -3.625 C 13.390625 -4.070312 13.75 -4.726562 13.75 -5.59375 C 13.75 -6.101562 13.5625 -6.546875 13.1875 -6.921875 C 12.820312 -7.304688 11.941406 -7.660156 10.546875 -7.984375 L 7.09375 -8.796875 C 4.914062 -9.304688 3.429688 -10.003906 2.640625 -10.890625 C 1.859375 -11.773438 1.46875 -13 1.46875 -14.5625 C 1.46875 -16.394531 2.117188 -17.890625 3.421875 -19.046875 C 4.722656 -20.210938 6.671875 -20.796875 9.265625 -20.796875 C 11.847656 -20.796875 13.804688 -20.140625 15.140625 -18.828125 C 16.484375 -17.523438 17.160156 -16 17.171875 -14.25 L 13.109375 -14.25 C 13.015625 -15.238281 12.625 -15.992188 11.9375 -16.515625 C 11.257812 -17.035156 10.265625 -17.296875 8.953125 -17.296875 C 7.898438 -17.296875 7.046875 -17.078125 6.390625 -16.640625 C 5.742188 -16.203125 5.421875 -15.613281 5.421875 -14.875 C 5.421875 -14.351562 5.5625 -13.921875 5.84375 -13.578125 C 6.132812 -13.242188 6.597656 -13 7.234375 -12.84375 L 12.65625 -11.5 C 14.601562 -11.019531 15.945312 -10.332031 16.6875 -9.4375 C 17.4375 -8.550781 17.8125 -7.4375 17.8125 -6.09375 C 17.8125 -3.882812 17.046875 -2.226562 15.515625 -1.125 C 13.992188 -0.0195312 12.101562 0.53125 9.84375 0.53125 C 6.914062 0.53125 4.738281 -0.0859375 3.3125 -1.328125 C 1.882812 -2.578125 1.171875 -4.210938 1.171875 -6.234375 Z M 5.234375 -6.234375 "/></g></g></g></svg>